<svg width="3206" height="698" xmlns="http://www.w3.org/2000/svg" xmlns:xlink="http://www.w3.org/1999/xlink" xml:space="preserve" overflow="hidden"><defs><clipPath id="clip0"><rect x="297" y="977" width="3206" height="698"/></clipPath></defs><g clip-path="url(#clip0)" transform="translate(-297 -977)"><path d="M2897.38 1506.55 2933.21 1506.55 2921.03 1542.39 2885.19 1542.39ZM3108.19 1500.23 3192.5 1500.23 3178.18 1542.39 3093.86 1542.39ZM2845.71 1453.85 2789.13 1620.39 2858.68 1620.39 2866.55 1597.2 2971.94 1597.2 3020.65 1453.85ZM3052.37 1441.2 2991.47 1620.39 3067.35 1620.39 3073.08 1603.53 3157.39 1603.53 3151.66 1620.39 3225.44 1620.39 3286.33 1441.2ZM1898.26 1401.15 2113.25 1401.15 2071.72 1523.42 1856.73 1523.42ZM2876.4 1382.17 2858.48 1434.88 3016.57 1434.88 3034.48 1382.17ZM2522.43 1363.2 2490.18 1458.07 2429.06 1458.07C2457.29 1436.98 2488.42 1405.36 2522.43 1363.2ZM2604.66 1356.87C2610.46 1401.85 2620.78 1435.58 2635.62 1458.07L2570.28 1458.07ZM3214.8 1310.5 3248.52 1310.5 3233.51 1354.77 3191.35 1354.77ZM2901.46 1308.39 2882.86 1363.2 3040.94 1363.2 3059.55 1308.39ZM2906.17 1232.49 2886.12 1291.52 3086.36 1291.52 3106.41 1232.49ZM1959.15 1221.95 2174.15 1221.95 2134.76 1337.9 1919.77 1337.9ZM2946.72 1156.6 2926.66 1215.63 3093.17 1215.63 3113.23 1156.6ZM1906.2 1154.49 1748.61 1618.29 1824.49 1618.29 1833.77 1590.88 2048.77 1590.88 2039.48 1618.29 2115.36 1618.29 2272.95 1154.49ZM3137.17 1148.17 3114.25 1215.63 3194.35 1215.63 3178.01 1245.14 3118.99 1245.14 3096.76 1310.5 3141.03 1310.5 3115.47 1354.77 3056.45 1354.77 3034.22 1420.12 3325.1 1420.12 3347.33 1354.77 3309.39 1354.77 3346.63 1245.14 3251.78 1245.14 3270.23 1215.63 3369.29 1215.63 3392.21 1148.17ZM2600.48 1133.41 2570.41 1221.95 2368.06 1221.95 2345.87 1287.31 2499.73 1287.31C2475.58 1325.25 2439.73 1364.6 2392.17 1405.36 2346.48 1444.71 2304.61 1472.82 2266.56 1489.69L2287.84 1563.47C2302.88 1556.45 2322.4 1544.5 2346.39 1527.63 2372.28 1509.36 2389.7 1495.31 2398.66 1485.47L2385.78 1523.42 2467.99 1523.42 2434.29 1622.5 2514.39 1622.5 2548.08 1523.42 2632.39 1523.42 2646.72 1481.26C2653.57 1506.55 2671.89 1533.26 2701.69 1561.37L2771.74 1485.47C2742.86 1458.77 2719.88 1429.25 2702.77 1396.93 2683.34 1358.98 2674.68 1322.44 2676.79 1287.31L2830.66 1287.31 2852.85 1221.95 2650.51 1221.95 2680.58 1133.41ZM1825.83 1108 3503 1108 3314.17 1662 1637 1662Z" fill="#FFFFFF" fill-rule="evenodd"/><path d="M779.524 1401.87 769.189 1432.22 820.765 1432.22 831.099 1401.87ZM416.363 1265.3 583.224 1265.3 517.238 1459.53C506.904 1489.88 508.769 1514.16 522.832 1532.37 538.191 1552.6 562.051 1562.71 594.411 1562.71L700.596 1562.71 875.611 1556.64 1027.35 1547.54 958.852 1659.83 762.6 1665.9 604.84 1665.9C515.847 1665.9 457.999 1645.66 431.295 1605.2L325.679 1675 297 1580.92 390.433 1520.23 444.046 1362.42 383.37 1362.42ZM860.347 1101.43 960.464 1101.43 952.216 1125.7 1009.86 1125.7 984.071 1201.57 926.428 1201.57 918.179 1225.85 975.823 1225.85 946.954 1310.83 734.585 1310.83 763.453 1225.85 818.062 1225.85 826.311 1201.57 771.702 1201.57 797.489 1125.7 852.099 1125.7ZM1276.71 999.129 1764 999.129 1725.37 1112.87C1612.14 1203.86 1522.77 1291.6 1457.26 1376.09 1394.62 1458.41 1339.83 1555.9 1292.9 1668.55L1153.21 1668.55C1212.49 1545.07 1275.98 1441.08 1343.66 1356.59 1406.97 1278.6 1491.62 1195.19 1597.61 1106.37L1240.26 1106.37ZM725.531 998.244 1165.44 998.244 1007.68 1462.57C991.877 1509.1 963.751 1532.37 923.299 1532.37L856.555 1532.37 860.773 1502.02 745.488 1502.02 738.282 1523.26 659.402 1523.26 725.388 1329.03 937.757 1329.03 903.721 1429.18C915.161 1431.21 923.631 1424.12 929.13 1407.94L1037.4 1089.29 788.625 1089.29 716.477 1301.72C680.734 1406.93 632.682 1485.83 572.321 1538.43L521.268 1456.5C568.766 1411.99 607.637 1345.22 637.881 1256.2ZM593.179 977C605.283 983.07 621.037 996.22 640.441 1016.45 659.876 1036.68 671.569 1052.87 675.52 1065.01L577.868 1156.05C576.603 1141.89 566.254 1124.69 546.818 1104.46 529.437 1084.23 513.019 1070.07 497.566 1061.97Z" fill="#FFFFFF" fill-rule="evenodd"/></g></svg>